<svg xmlns="http://www.w3.org/2000/svg" viewBox="0 0 120 36" width="120" height="36">
  <!-- Logo icon -->
  <rect x="0" y="0" width="36" height="36" rx="8" fill="#2563eb"/>
  <path d="M18 6 C18 6 15 11 18 16 C21 11 18 6 18 6Z" fill="white" opacity="0.95"/>
  <path d="M6 18 C6 18 11 21 16 18 C11 15 6 18 6 18Z" fill="white" opacity="0.95"/>
  <path d="M30 18 C30 18 25 15 20 18 C25 21 30 18 30 18Z" fill="white" opacity="0.95"/>
  <path d="M18 30 C18 30 21 25 18 20 C15 25 18 30 18 30Z" fill="white" opacity="0.95"/>
  <circle cx="18" cy="18" r="3" fill="white"/>
  <!-- Wordmark -->
  <text x="44" y="22" font-family="system-ui, sans-serif" font-size="14" font-weight="700" fill="white" letter-spacing="-0.3">Ventila</text>
  <text x="44" y="32" font-family="system-ui, sans-serif" font-size="8" font-weight="600" fill="#60a5fa" letter-spacing="1.5">SOLUTIONS</text>
</svg>
